Input #0, mov,mp4,m4a,3gp,3g2,mj2, from '/home/hbattu/projects/huberman-gpt/huberman-audio/mp3/tmp5_5zpoo4.mp4':
  Metadata:
    major_brand     : dash
    minor_version   : 0
    compatible_brands: iso6mp41
    creation_time   : 2021-12-14T12:05:33.000000Z
  Duration: 02:13:49.88, start: 0.000000, bitrate: 129 kb/s
    Stream #0:0(und): Audio: aac (LC) (mp4a / 0x6134706D), 44100 Hz, stereo, fltp, 0 kb/s (default)
    Metadata:
      creation_time   : 2021-12-14T12:05:33.000000Z
      handler_name    : ISO Media file produced by Google Inc.
Stream mapping:
  Stream #0:0 -> #0:0 (aac (native) -> mp3 (libmp3lame))
Press [q] to stop, [?] for help
[graph_0_in_0_0 @ 0x562503a48b00] tb:1/44100 samplefmt:fltp samplerate:44100 chlayout:0x3
Output #0, mp3, to '../huberman-audio/mp3/31wjVhCcI5Y.mp3':
  Metadata:
    major_brand     : dash
    minor_version   : 0
    compatible_brands: iso6mp41
    TSSE            : Lavf58.29.100
    Stream #0:0(und): Audio: mp3 (libmp3lame), 44100 Hz, stereo, fltp, delay 1105 (default)
    Metadata:
      creation_time   : 2021-12-14T12:05:33.000000Z
      handler_name    : ISO Media file produced by Google Inc.
      encoder         : Lavc58.54.100 libmp3lame
No more output streams to write to, finishing.
size=  125468kB time=02:13:49.88 bitrate= 128.0kbits/s speed=87.9x    
[AVIOContext @ 0x562503a0b900] Statistics: 0 seeks, 183 writeouts
video:0kB audio:125467kB subtitle:0kB other streams:0kB global headers:0kB muxing overhead: 0.000269%
Input file #0 (/home/hbattu/projects/huberman-gpt/huberman-audio/mp3/tmp5_5zpoo4.mp4):
  Input stream #0:0 (audio): 345818 packets read (128478052 bytes); 345818 frames decoded (354117632 samples); 
  Total: 345818 packets (128478052 bytes) demuxed
Output file #0 (../huberman-audio/mp3/31wjVhCcI5Y.mp3):
  Output stream #0:0 (audio): 307394 frames encoded (354117632 samples); 307395 packets muxed (128478563 bytes); 
  Total: 307395 packets (128478563 bytes) muxed
[AVIOContext @ 0x562503a39b00] Statistics: 2 seeks, 492 writeouts
[AVIOContext @ 0x562503a14880] Statistics: 129955368 bytes read, 0 seeks
